<?xml version="1.0" encoding="utf-8"?>
<!-- Generator: Adobe Illustrator 21.0.2, SVG Export Plug-In . SVG Version: 6.00 Build 0)  -->
<svg version="1.1" id="Слой_1" xmlns="http://www.w3.org/2000/svg" xmlns:xlink="http://www.w3.org/1999/xlink" x="0px" y="0px"
	 viewBox="0 0 24 24" style="enable-background:new 0 0 24 24;" xml:space="preserve">
<style type="text/css">
	.st0{fill:#607D8B;}
</style>
<path class="st0" d="M14.6,12.8h1.2v2.3l2,1.2l-0.6,1.1l-2.6-1.5V12.8 M17.8,8.7H6.6v9h3.7C10,17,9.8,16.1,9.8,15.3
	c0-3.2,2.5-5.7,5.6-5.7c0.9,0,1.7,0.2,2.4,0.5V8.7 M6.6,19.4c-0.9,0-1.6-0.7-1.6-1.6V6.3c0-0.9,0.7-1.6,1.6-1.6h0.8V3H9v1.6h6.4V3
	H17v1.6h0.8c0.9,0,1.6,0.7,1.6,1.6v5c1,1,1.6,2.4,1.6,4c0,3.2-2.5,5.7-5.6,5.7c-1.5,0-2.9-0.6-3.9-1.6H6.6 M15.4,11.3
	c-2.1,0-3.9,1.8-3.9,4l0,0c0,2.2,1.7,4,3.9,4c2.1,0,3.9-1.8,3.9-4l0,0C19.3,13.1,17.5,11.3,15.4,11.3z"/>
</svg>
