<?xml version="1.0" encoding="iso-8859-1"?>
<svg xmlns="http://www.w3.org/2000/svg" xmlns:xlink="http://www.w3.org/1999/xlink" version="1.1" viewBox="0 0 98.423 98.423" enable-background="new 0 0 98.423 98.423" width="512px" height="512px">
  <g>
    <g>
      <path fill="#90a4ae" d="m56.116,88.894h-40.32c-1.105,0-2-0.896-2-2s0.895-2 2-2h38.32v-33.238c0-1.104 0.896-2 2-2s2,0.896 2,2v35.237c0,1.105-0.896,2.001-2,2.001z"/>
    </g>
    <g>
      <path fill="#90a4ae" d="m56.116,45.494c-1.104,0-2-0.896-2-2 0-10.014-8.146-18.16-18.16-18.16-10.014,0-18.16,8.146-18.16,18.16 0,1.104-0.896,2-2,2-1.105,0-2-0.896-2-2 0-12.219 9.941-22.16 22.16-22.16 12.219,0 22.16,9.941 22.16,22.16 0,1.105-0.896,2-2,2z"/>
    </g>
    <g>
      <path fill="#90a4ae" d="m60.061,98.422h-22.119c-1.104,0-2-0.896-2-2s0.896-2 2-2h22.119c1.104,0 2,0.896 2,2s-0.895,2-2,2z"/>
    </g>
    <g>
      <path fill="#90a4ae" d="m21.901,98.422h-10.051c-1.104,0-2-0.896-2-2s0.896-2 2-2h10.051c1.105,0 2,0.896 2,2s-0.896,2-2,2z"/>
    </g>
    <g>
      <polygon points="31.68,25.334 27.68,25.334 27.68,5.799 44.231,5.799 44.231,11.742 40.231,11.742     40.231,9.799 31.68,9.799   " fill="#90a4ae"/>
    </g>
    <g>
      <rect width="4" x="40.231" y="15.78" fill="#90a4ae" height="9.554"/>
    </g>
    <g>
      <path fill="#90a4ae" d="m67.708,12.074h-9.213c-1.104,0-2-0.895-2-2s0.896-2 2-2h9.213c1.124,0 2.039-0.914 2.039-2.037 0-1.123-0.915-2.037-2.039-2.037-0.683,0-1.315,0.34-1.694,0.909-0.614,0.918-1.856,1.168-2.774,0.555-0.92-0.612-1.169-1.854-0.557-2.773 1.123-1.685 3.001-2.691 5.025-2.691 3.33,0 6.039,2.708 6.039,6.037s-2.709,6.037-6.039,6.037z"/>
    </g>
    <g>
      <path fill="#90a4ae" d="m80.446,30.991c-2.723,0-5.251-1.353-6.763-3.619-0.613-0.919-0.366-2.161 0.553-2.774 0.918-0.613 2.161-0.366 2.773,0.553 0.77,1.152 2.054,1.84 3.437,1.84 2.275,0 4.127-1.851 4.127-4.125s-1.851-4.125-4.127-4.125h-6.783c-1.104,0-2-0.896-2-2s0.896-2 2-2h6.783c4.481,0 8.127,3.645 8.127,8.125s-3.646,8.125-8.127,8.125z"/>
    </g>
    <g>
      <path fill="#90a4ae" d="m60.157,18.741h-9.006c-1.104,0-2-0.896-2-2s0.896-2 2-2h9.006c1.104,0 2,0.895 2,2s-0.896,2-2,2z"/>
    </g>
    <g>
      <path fill="#90a4ae" d="m67.1,18.743c-0.52,0-1.04-0.22-1.41-0.59-0.37-0.37-0.59-0.89-0.59-1.41 0-0.53 0.22-1.04 0.59-1.42 0.74-0.74 2.08-0.74 2.83,0 0.37,0.38 0.58,0.89 0.58,1.42 0,0.52-0.21,1.04-0.58,1.41-0.37,0.37-0.89,0.59-1.42,0.59z"/>
    </g>
    <g>
      <path fill="#90a4ae" d="m28.99,98.423c-0.529,0-1.05-0.21-1.42-0.59-0.369-0.37-0.58-0.89-0.58-1.41 0-0.53 0.211-1.04 0.58-1.42 0.75-0.74 2.08-0.74 2.83,0 0.38,0.38 0.59,0.9 0.59,1.42 0,0.52-0.21,1.04-0.59,1.41-0.37,0.38-0.89,0.59-1.41,0.59z"/>
    </g>
    <g>
      <path fill="#90a4ae" d="m56.116,80.714h-7.506c-1.104,0-2-0.896-2-2s0.896-2 2-2h7.506c1.104,0 2,0.896 2,2s-0.896,2-2,2z"/>
    </g>
    <g>
      <path fill="#90a4ae" d="m28.573,68.102h-12.778c-1.105,0-2-0.896-2-2s0.895-2 2-2h12.777c1.104,0 2,0.896 2,2s-0.895,2-1.999,2z"/>
    </g>
    <g>
      <path fill="#90a4ae" d="m23.825,73.264c-0.512,0-1.023-0.195-1.414-0.586-0.781-0.781-0.781-2.047 0-2.829l13.973-13.971c0.781-0.78 2.047-0.781 2.828,0 0.781,0.781 0.781,2.047 0,2.829l-13.973,13.971c-0.391,0.39-0.903,0.586-1.414,0.586z"/>
    </g>
    <g>
      <path fill="#90a4ae" d="m56.116,68.102h-17.969c-1.104,0-2-0.896-2-2s0.896-2 2-2h17.969c1.104,0 2,0.896 2,2s-0.896,2-2,2z"/>
    </g>
    <g>
      <path fill="#90a4ae" d="m37.165,69.083c-0.512,0-1.023-0.195-1.414-0.586-0.781-0.781-0.781-2.047 0-2.829l4.604-4.603c0.781-0.78 2.047-0.781 2.828,0 0.781,0.781 0.781,2.047 0,2.829l-4.604,4.603c-0.391,0.391-0.903,0.586-1.414,0.586z"/>
    </g>
    <g>
      <path fill="#90a4ae" d="m15.795,80.714c-1.105,0-2-0.896-2-2v-35.22c0-1.104 0.895-2 2-2 1.104,0 2,0.896 2,2v35.22c0,1.104-0.895,2-2,2z"/>
    </g>
  </g>
</svg>
