<?xml version="1.0" encoding="utf-8"?>
<!-- Generator: Adobe Illustrator 20.0.0, SVG Export Plug-In . SVG Version: 6.00 Build 0)  -->
<svg version="1.1" id="Layer_1" xmlns="http://www.w3.org/2000/svg" xmlns:xlink="http://www.w3.org/1999/xlink" x="0px" y="0px"
	 viewBox="0 0 24 24" style="enable-background:new 0 0 24 24;" xml:space="preserve">
<style type="text/css">
	.st0{fill:#FFFFFF;}
	.st1{fill:#E91E63;}
</style>
<path class="st0" d="M10.1,10.3H6V9.2h4 M13.2,8.3H6V7.2h7.2 M16.8,6.3H6V5.2h10.9 M11.3,12.3H6v-1.1h5.2 M19.9,3H5.1
	C4.5,3,4,3.5,4,4.1v15.8C4,20.5,4.5,21,5.1,21h14.8c0.6,0,1.1-0.5,1.1-1.1V4.1C21,3.5,20.5,3,19.9,3z"/>
<g>
	<path class="st1" d="M18.7,13.8l-0.6-0.6L16,15.4l-2.2-2.2l-0.6,0.6l2.2,2.2l-2.2,2.2l0.6,0.6l2.2-2.2l2.2,2.2l0.6-0.6L16.5,16
		L18.7,13.8z"/>
</g>
</svg>
