<?xml version="1.0" encoding="utf-8"?>
<!-- Generator: Adobe Illustrator 21.0.0, SVG Export Plug-In . SVG Version: 6.00 Build 0)  -->
<svg version="1.1" id="Layer_1" xmlns="http://www.w3.org/2000/svg" xmlns:xlink="http://www.w3.org/1999/xlink" x="0px" y="0px"
	 viewBox="0 0 24 24" style="enable-background:new 0 0 24 24;" xml:space="preserve">
<style type="text/css">
	.st0{fill:#00B8D4;}
	.st1{fill:none;}
	.st2{fill:#FFFFFF;}
</style>
<path class="st0" d="M17.9,20.2H7.1c-1.3,0-2.3-1-2.3-2.3V6.2c0-1.3,1-2.3,2.3-2.3h10.8c1.3,0,2.3,1,2.3,2.3v11.7
	C20.2,19.1,19.2,20.2,17.9,20.2z"/>
<g>
	<rect x="6" y="9.2" class="st1" width="4.1" height="1.1"/>
	<rect x="6" y="7.2" class="st1" width="7.2" height="1.1"/>
	<rect x="6" y="5.2" class="st1" width="10.8" height="1.1"/>
	<rect x="6" y="11.2" class="st1" width="5.3" height="1.1"/>
</g>
<g>
	<rect x="6" y="9.2" class="st1" width="4.1" height="1.1"/>
	<rect x="6" y="5.2" class="st1" width="10.8" height="1.1"/>
	<rect x="6" y="7.2" class="st1" width="7.2" height="1.1"/>
	<rect x="6" y="11.2" class="st1" width="5.3" height="1.1"/>
	<path class="st2" d="M16.5,12c-1.1,0-2,0.9-2,2c0,0.8,0.5,1.6,1.2,1.9v1h1.6v-1c0.7-0.3,1.2-1,1.2-1.9C18.5,12.9,17.6,12,16.5,12z"
		/>
	<path class="st2" d="M19.9,3H5.1C4.5,3,4,3.5,4,4.1v15.8C4,20.5,4.5,21,5.1,21h14.8c0.6,0,1.1-0.5,1.1-1.1V4.1
		C21,3.5,20.5,3,19.9,3z M6,5.2h10.8v1.1H6V5.2z M6,9.2h4.1v1.1H6V9.2z M11.3,12.3H6v-1.1h5.3V12.3z M13.2,8.3H6V7.2h7.2V8.3z
		 M17.7,19c0,0.2-0.2,0.4-0.4,0.4h-1.6c-0.2,0-0.4-0.2-0.4-0.4v-0.4h2.5V19H17.7z M18.1,16.4v0.9c0,0.2-0.2,0.4-0.4,0.4h-2.5
		c-0.2,0-0.4-0.2-0.4-0.4v-0.9c-0.7-0.5-1.2-1.4-1.2-2.4c0-1.6,1.3-2.9,2.9-2.9s2.9,1.3,2.9,2.9C19.4,15,18.9,15.9,18.1,16.4z"/>
</g>
</svg>
