<?xml version="1.0" encoding="utf-8"?>
<!-- Generator: Adobe Illustrator 19.0.0, SVG Export Plug-In . SVG Version: 6.00 Build 0)  -->
<svg version="1.1" id="Layer_1" xmlns="http://www.w3.org/2000/svg" xmlns:xlink="http://www.w3.org/1999/xlink" x="0px" y="0px"
	 viewBox="-285 408.9 24 24" style="enable-background:new -285 408.9 24 24;" xml:space="preserve">
<style type="text/css">
	.st0{fill:#FFFFFF;}
	.st1{fill:#607D8B;}
</style>
<path class="st0" d="M-267.5,413 M-275.1,417.1v6.6l4.2-3.3L-275.1,417.1z"/>
<g>
	<path class="st1" d="M-275.7,421.7l2.1,2.5l2.9-3.8l3.8,5h-11.7 M-265.2,426.3v-11.7c0-0.9-0.8-1.7-1.7-1.7h-11.7
		c-0.9,0-1.7,0.8-1.7,1.7v11.7c0,0.9,0.8,1.7,1.7,1.7h11.7C-265.9,428-265.2,427.2-265.2,426.3z"/>
</g>
<path class="st0" d="M-275.7,418.4L-275.7,418.4c-0.5,0-0.9-0.4-0.9-0.9l0,0c0-0.5,0.4-0.9,0.9-0.9l0,0c0.5,0,0.9,0.4,0.9,0.9l0,0
	C-274.8,418-275.2,418.4-275.7,418.4z"/>
</svg>
