<?xml version="1.0" encoding="utf-8"?>
<!-- Generator: Adobe Illustrator 21.0.2, SVG Export Plug-In . SVG Version: 6.00 Build 0)  -->
<svg version="1.1" id="Слой_1" xmlns="http://www.w3.org/2000/svg" xmlns:xlink="http://www.w3.org/1999/xlink" x="0px" y="0px"
	 viewBox="0 0 24 24" style="enable-background:new 0 0 24 24;" xml:space="preserve">
<style type="text/css">
	.st0{fill:none;}
	.st1{fill:#FFFFFF;}
</style>
<path class="st0" d="M8.5,13.5l2.5,3l3.5-4.5l4.5,6H5 M21,19V5c0-1.1-0.9-2-2-2H5C3.9,3,3,3.9,3,5v14c0,1.1,0.9,2,2,2h14
	C20.1,21,21,20.1,21,19z"/>
<path class="st1" d="M8.2,8.3L8.2,8.3c-0.5,0-0.9-0.4-0.9-0.9l0,0c0-0.5,0.4-0.9,0.9-0.9l0,0c0.5,0,0.9,0.4,0.9,0.9l0,0
	C9.1,7.9,8.7,8.3,8.2,8.3z"/>
</svg>
