<svg xmlns="http://www.w3.org/2000/svg" viewBox="0 0 19.84 19"><defs><style>.cls-1{isolation:isolate;}.cls-2{fill:#fff;}</style></defs><title>printer</title><g id="Forma_1" data-name="Forma 1" class="cls-1"><g id="Forma_1-2" data-name="Forma 1"><path class="cls-2" d="M26,30.89H32.7v0.84H35V30H23.61v1.69H26V30.89ZM25.3,19.49H33.7V18.64H25.3v0.84Zm0-2.11H33.7V16.53H25.3v0.84ZM37.64,21.6h-2L35.35,14H23.63l-0.29,7.6h-2a2,2,0,0,0-1.78,2.24v7.35A2.44,2.44,0,0,0,20.33,33H38.67a2.44,2.44,0,0,0,.75-1.81V23.84A2,2,0,0,0,37.64,21.6ZM35.39,32.15H23.28V29.62H35.39v2.53Zm1-8H22.61a0.43,0.43,0,0,1,0-.84h1l0.06-1.69,0.28-7.18H35l0.28,7.18,0.07,1.69h1A0.43,0.43,0,0,1,36.39,24.13ZM38,26.4a0.61,0.61,0,1,1,.48-0.6A0.55,0.55,0,0,1,38,26.4Z" transform="translate(-19.58 -14)"/></g></g></svg>