<svg xmlns="http://www.w3.org/2000/svg" viewBox="0 0 796 800"><defs><style>.cls-1{isolation:isolate;}.cls-2{fill:#fff;}</style></defs><title>RSS</title><g id="Shape_1" data-name="Shape 1" class="cls-1"><g id="Shape_1-2" data-name="Shape 1"><path class="cls-2" d="M14,263a12.9,12.9,0,0,0-12.9,12.9v148.4A12.91,12.91,0,0,0,14,437.24c92.82,0,180.11,36.3,245.79,102.21S361.68,693.37,361.68,787a12.9,12.9,0,0,0,12.91,12.9H523A12.9,12.9,0,0,0,535.86,787C535.86,498.07,301.76,263,14,263ZM116.69,567.74A115.67,115.67,0,1,0,232.36,683.43,115.82,115.82,0,0,0,116.69,567.74ZM14.22,0A12.9,12.9,0,0,0,1.31,12.9V161.28a12.9,12.9,0,0,0,12.91,12.9c336.15,0,609.64,275,609.64,612.92A12.9,12.9,0,0,0,636.76,800H785.09A12.91,12.91,0,0,0,797,792.08V747.15C776.22,331.63,433.06,0,14.22,0Z" transform="translate(-1)"/></g></g></svg>