<?xml version="1.0" encoding="UTF-8"?>
<svg width="34px" height="48px" viewBox="0 0 34 48" version="1.1" xmlns="http://www.w3.org/2000/svg" xmlns:xlink="http://www.w3.org/1999/xlink">
    <!-- Generator: Sketch 42 (36781) - http://www.bohemiancoding.com/sketch -->
    <title>company</title>
    <desc>Created with Sketch.</desc>
    <defs>
        <path d="M13,40.2373687 C13,40.2373687 26,20.1797017 26,13 C26,5.82029825 20.1797017,0 13,0 C5.82029825,0 0,5.82029825 0,13 C0,20.1797017 13,40.2373687 13,40.2373687 Z" id="path-1"></path>
        <filter x="-50%" y="-50%" width="200%" height="200%" filterUnits="objectBoundingBox" id="filter-2">
            <feOffset dx="0" dy="-1" in="SourceAlpha" result="shadowOffsetOuter1"></feOffset>
            <feGaussianBlur stdDeviation="2" in="shadowOffsetOuter1" result="shadowBlurOuter1"></feGaussianBlur>
            <feColorMatrix values="0 0 0 0 0   0 0 0 0 0   0 0 0 0 0  0 0 0 0.148494112 0" type="matrix" in="shadowBlurOuter1"></feColorMatrix>
        </filter>
    </defs>
    <g id="Page-1" stroke="none" stroke-width="1" fill="none" fill-rule="evenodd">
        <g id="iPad-Pro-Portrait" transform="translate(-187.000000, -111.000000)">
            <g id="company" transform="translate(191.000000, 116.000000)">
                <g id="Oval-9">
                    <use fill="black" fill-opacity="1" filter="url(#filter-2)" xlink:href="#path-1"></use>
                    <use fill="#FFFFFF" fill-rule="evenodd" xlink:href="#path-1"></use>
                </g>
                <path d="M13,11.4444444 L19,11.4444444 L19,20 L7,20 L7,9 L13,9 L13,11.4444444 Z M17.8,18.7777778 L17.8,12.6666667 L13,12.6666667 L13,13.8888889 L14.2,13.8888889 L14.2,15.1111111 L13,15.1111111 L13,16.3333333 L14.2,16.3333333 L14.2,17.5555556 L13,17.5555556 L13,18.7777778 L17.8,18.7777778 Z M16.6,16.3333333 L16.6,17.5555556 L15.4,17.5555556 L15.4,16.3333333 L16.6,16.3333333 Z M16.6,13.8888889 L16.6,15.1111111 L15.4,15.1111111 L15.4,13.8888889 L16.6,13.8888889 Z M11.8,11.4444444 L11.8,10.2222222 L10.6,10.2222222 L10.6,11.4444444 L11.8,11.4444444 Z M11.8,13.8888889 L11.8,12.6666667 L10.6,12.6666667 L10.6,13.8888889 L11.8,13.8888889 Z M11.8,16.3333333 L11.8,15.1111111 L10.6,15.1111111 L10.6,16.3333333 L11.8,16.3333333 Z M11.8,18.7777778 L11.8,17.5555556 L10.6,17.5555556 L10.6,18.7777778 L11.8,18.7777778 Z M9.4,11.4444444 L9.4,10.2222222 L8.2,10.2222222 L8.2,11.4444444 L9.4,11.4444444 Z M9.4,13.8888889 L9.4,12.6666667 L8.2,12.6666667 L8.2,13.8888889 L9.4,13.8888889 Z M9.4,16.3333333 L9.4,15.1111111 L8.2,15.1111111 L8.2,16.3333333 L9.4,16.3333333 Z M9.4,18.7777778 L9.4,17.5555556 L8.2,17.5555556 L8.2,18.7777778 L9.4,18.7777778 Z" id="Combined-Shape-Copy" fill="#607D8B"></path>
            </g>
        </g>
    </g>
</svg>