<?xml version="1.0" encoding="UTF-8"?>
<svg width="34px" height="48px" viewBox="0 0 34 48" version="1.1" xmlns="http://www.w3.org/2000/svg" xmlns:xlink="http://www.w3.org/1999/xlink">
    <!-- Generator: Sketch 42 (36781) - http://www.bohemiancoding.com/sketch -->
    <title>complaint 3</title>
    <desc>Created with Sketch.</desc>
    <defs>
        <path d="M13,40.2373687 C13,40.2373687 26,20.1797017 26,13 C26,5.82029825 20.1797017,0 13,0 C5.82029825,0 0,5.82029825 0,13 C0,20.1797017 13,40.2373687 13,40.2373687 Z" id="path-1"></path>
        <filter x="-50%" y="-50%" width="200%" height="200%" filterUnits="objectBoundingBox" id="filter-2">
            <feOffset dx="0" dy="-1" in="SourceAlpha" result="shadowOffsetOuter1"></feOffset>
            <feGaussianBlur stdDeviation="2" in="shadowOffsetOuter1" result="shadowBlurOuter1"></feGaussianBlur>
            <feColorMatrix values="0 0 0 0 0   0 0 0 0 0   0 0 0 0 0  0 0 0 0.148494112 0" type="matrix" in="shadowBlurOuter1"></feColorMatrix>
        </filter>
    </defs>
    <g id="Page-1" stroke="none" stroke-width="1" fill="none" fill-rule="evenodd">
        <g id="location-icons" transform="translate(-164.000000, -134.000000)">
            <g id="complaint-3" transform="translate(168.000000, 139.000000)">
                <g id="Oval-9-Copy">
                    <use fill="black" fill-opacity="1" filter="url(#filter-2)" xlink:href="#path-1"></use>
                    <use fill="#FFFFFF" fill-rule="evenodd" xlink:href="#path-1"></use>
                </g>
                <g id="emoticon-happy" transform="translate(8.000000, 8.000000)"></g>
                <path d="M18.4,13 C18.4,10.0165 15.9835,7.6 13,7.6 C10.0165,7.6 7.6,10.0165 7.6,13 C7.6,15.9835 10.0165,18.4 13,18.4 C15.9835,18.4 18.4,15.9835 18.4,13 L18.4,13 Z" id="Path" fill="#607D8B"></path>
                <path d="M13,16.138 C11.95,16.138 11.026,15.7 10.486,15.052 L11.338,14.2 C11.608,14.632 12.25,14.938 13,14.938 C13.75,14.938 14.392,14.632 14.662,14.2 L15.514,15.052 C14.974,15.7 14.05,16.138 13,16.138 Z" id="Path" fill="#FFFFFF"></path>
                <path d="M16,11.5 C16,11.98 15.58,12.4 15.1,12.4 C14.62,12.4 14.2,11.98 14.2,11.5 C14.2,11.02 14.62,10.6 15.1,10.6 C15.58,10.6 16,11.02 16,11.5 L16,11.5 Z" id="Path" fill="#FFFFFF"></path>
                <path d="M11.8,11.5 C11.8,11.98 11.38,12.4 10.9,12.4 C10.42,12.4 10,11.98 10,11.5 C10,11.02 10.42,10.6 10.9,10.6 C11.38,10.6 11.8,11.02 11.8,11.5 L11.8,11.5 Z" id="Path" fill="#FFFFFF"></path>
            </g>
        </g>
    </g>
</svg>