<?xml version="1.0" encoding="UTF-8"?>
<svg width="400px" height="400px" viewBox="0 0 400 400" version="1.1" xmlns="http://www.w3.org/2000/svg" xmlns:xlink="http://www.w3.org/1999/xlink">
    <!-- Generator: Sketch 41 (35326) - http://www.bohemiancoding.com/sketch -->
    <title>character rb 2</title>
    <desc>Created with Sketch.</desc>
    <defs></defs>
    <g id="Page-1" stroke="none" stroke-width="1" fill="none" fill-rule="evenodd">
        <g id="character-rb-2">
            <g id="Group" transform="translate(105.000000, 18.000000)">
                <rect id="Rectangle-9-Copy" fill="#5D3919" x="85" y="43" width="90" height="318" rx="45"></rect>
                <rect id="Rectangle-9-Copy-7" fill="#00BFA5" x="0" y="261" width="190" height="240" rx="95"></rect>
                <path d="M40.1902925,279.609566 C55.3688524,267.938828 74.3746218,261 95,261 C115.626103,261 134.631624,267.93821 149.8098,279.608197 C147.469898,307.827477 123.830336,330 95,330 C66.1761772,330 42.5310381,307.833309 40.1902925,279.609566 Z" id="Combined-Shape" fill="#009681"></path>
                <text id="00bfa5" font-family="GothamPro-Bold, Gotham Pro" font-size="20" font-weight="bold" fill="#FFFFFF">
                    <tspan x="58" y="188">00bfa5</tspan>
                </text>
                <rect id="Rectangle-9-Copy-2" fill="#5D3919" x="0" y="0" width="125" height="234.408983" rx="62.5"></rect>
                <rect id="Rectangle-9-Copy-8" fill="#5D3919" x="0" y="134" width="60" height="216" rx="30"></rect>
                <rect id="Rectangle-9-Copy-3" fill="#000000" opacity="0.300000012" x="65" y="31" width="60" height="130" rx="30"></rect>
                <rect id="Rectangle-9-Copy-5" fill="#D69A85" x="60" y="180" width="70" height="130" rx="35"></rect>
                <circle id="Oval-2-Copy-3" fill="#D69A85" cx="15" cy="168" r="15"></circle>
                <circle id="Oval-2-Copy-2" fill="#D69A85" cx="175" cy="168" r="15"></circle>
                <rect id="Rectangle-9" fill="#E6B5A3" x="15" y="61" width="160" height="200" rx="80"></rect>
                <rect id="Rectangle-9-Copy-4" fill="#5D3919" x="15" y="33" width="50" height="120" rx="25"></rect>
                <path d="M55.0518072,171.114154 C60.5746547,171.114154 65,163 65,163 L45,163 C45,163 49.5289597,171.114154 55.0518072,171.114154 Z" id="Oval-2" fill="#D69A85"></path>
                <path d="M137.326599,171.354473 C142.849447,171.354473 147,163 147,163 L127,163 C127,163 131.803752,171.354473 137.326599,171.354473 Z" id="Oval-2-Copy" fill="#D69A85"></path>
                <rect id="Rectangle-10" fill="#D69A85" x="85" y="157" width="20" height="33" rx="3"></rect>
                <rect id="Rectangle-10-Copy" fill="#D69A85" x="105" y="201" width="20" height="8" rx="3"></rect>
            </g>
        </g>
    </g>
</svg>