<?xml version="1.0" encoding="utf-8"?>
<!-- Generator: Adobe Illustrator 21.0.0, SVG Export Plug-In . SVG Version: 6.00 Build 0)  -->
<svg version="1.1" id="illustration" xmlns="http://www.w3.org/2000/svg" xmlns:xlink="http://www.w3.org/1999/xlink" x="0px"
	 y="0px" viewBox="0 0 370 175" style="enable-background:new 0 0 370 175;" xml:space="preserve">
<style type="text/css">
	.st0{fill:#FAFAFA;}
	.st1{fill:#FCE4EC;}
	.st2{fill:#F48FB1;}
	.st3{fill:#F8BBD0;}
	.st4{fill:#FF4081;}
</style>
<path id="base_copy" class="st0" d="M5,0h365l0,0v175l0,0H0l0,0V5C0,2.2,2.2,0,5,0z"/>
<g id="mailbox_subscribe">
	<path class="st1" d="M51.4,101.1h20.9V175H51.4V101.1z"/>
	<path id="Rounded_Rectangle_1" class="st2" d="M64.1,61.8c19.6,0,35.4,15.9,35.4,35.4l0,0v43.9H39.3c-5.2,0-9.3-4.2-9.3-9.3v-36
		C30,77,45.3,61.8,64.1,61.8z"/>
	<path class="st2" d="M64.8,61.8h102.5v79.3H64.8V61.8z"/>
	<path class="st3" d="M109.3,99.8c6.2,0,11.2,5,11.2,11.1c0,6.2-5,11.2-11.1,11.2c-6.2,0-11.2-5-11.2-11.1c0,0,0,0,0-0.1
		C98.2,104.8,103.1,99.8,109.3,99.8L109.3,99.8z"/>
	<path class="st3" d="M41.6,128.9c1.2,0,2.2,1,2.2,2.2s-1,2.2-2.2,2.2s-2.2-1-2.2-2.2l0,0C39.4,129.9,40.4,128.9,41.6,128.9
		L41.6,128.9z"/>
	<path class="st3" d="M51.4,128.9c1.2,0,2.2,1,2.2,2.2s-1,2.2-2.2,2.2s-2.2-1-2.2-2.2l0,0C49.2,129.9,50.2,128.9,51.4,128.9
		L51.4,128.9z"/>
	<circle class="st3" cx="61.2" cy="131.1" r="2.2"/>
	<path class="st4" d="M109.3,34c3.7,0,6.7,3,6.7,6.7v69c0,3.7-3,6.7-6.7,6.7s-6.7-3-6.7-6.7v-69C102.6,37,105.6,34,109.3,34z"/>
	<path class="st4" d="M91.5,34h17.8c3.7,0,6.7,3,6.7,6.7s-3,6.7-6.7,6.7H91.5c-3.7,0-6.7-3-6.7-6.7S87.8,34,91.5,34z"/>
	<g>
		<path class="st3" d="M167.2,76.7H167c-13.3,0-24,10.7-24,23.8V131h48v-30.5C191,87.4,180.3,76.7,167.2,76.7z"/>
	</g>
	<g id="Layer_2">
		<g id="Layer_1-2">
			<path class="st2" d="M155.9,124.2c-2.9,0.1-5.8,0.2-8.7-0.3c-7.2-1.3-12.8-6.7-13.8-14c-0.8-5.7-0.4-11.2,3.2-16
				c3.7-4.9,8.7-6.8,14.7-6.6c3.2,0.1,6.4,0.3,9.5,0c7.1-0.7,14.9,4.3,17,11.2c1.7,5.7,1.7,11.4-1.1,16.8c-2.9,5.7-7.9,8.4-14.1,8.9
				C160.4,124.3,158.2,124.2,155.9,124.2z M155.9,117c1.8,0,3.6-0.1,5.3,0c3.3,0.2,5.5-1.4,6.8-4.2c2.1-4.1,2.1-8.5,0.7-12.8
				c-1.4-4.2-4-5.8-8.3-5.8c-3.2,0-6.5,0-9.7,0c-3,0-5.3,1.4-6.6,3.9c-2.4,4.6-2.4,9.4-0.5,14.1c1.3,3.2,3.7,5.1,7.4,4.8
				C152.7,116.8,154.3,117,155.9,117z"/>
			<path class="st2" d="M151.4,109.9c2.8,0.9,5.6,0.5,8.4-0.2c0.5-0.1,1.1-0.3,1.6-0.4c0.5-0.2,1,0.1,1.2,0.5
				c0.3,0.5-0.1,0.9-0.5,1.2c-0.7,0.5-1.5,0.9-2.4,1.2c-2.5,0.8-5.1,1.1-7.7,1c-0.5,0-0.9-0.1-1.3-0.3c-0.7-0.3-1.1-0.9-0.9-1.7
				C150.1,110.3,150.7,109.8,151.4,109.9z"/>
			<path class="st2" d="M162.4,103.7c-1.3,0-2.5-1.3-2.5-2.5c0.1-1.4,1.2-2.4,2.6-2.5c1.3,0.1,2.3,1.2,2.3,2.5
				S163.6,103.7,162.4,103.7z"/>
			<path class="st2" d="M148.8,98.7c1.3,0,2.5,1.3,2.5,2.5s-1.2,2.4-2.4,2.5c-1.2,0-2.5-1.2-2.5-2.5
				C146.4,100,147.6,98.7,148.8,98.7z"/>
		</g>
	</g>
	<path class="st1" d="M166.3,61.7c-19,0-34.3,15.3-34.3,34.1V141h60.9c5,0,9.1-4,9.1-9V97.1C202,77.6,186,61.7,166.3,61.7z M191,131
		h-48v-30.5c0-13.2,10.7-23.8,24-23.8h0.2c13.2,0,23.8,10.7,23.8,23.8V131z M0,0"/>
	<path id="Rounded_Rectangle_2" class="st2" d="M145.2,128h44.6c0.9,0,1.6,0.7,1.6,1.6l0,0c0,0.9-0.7,1.6-1.6,1.6h-44.6
		c-0.9,0-1.6-0.7-1.6-1.6l0,0C143.6,128.7,144.3,128,145.2,128z"/>
</g>
<g id="mail_icons">
	<path class="st2" d="M0,0"/>
	<path class="st2" d="M0,0"/>
	<path class="st2" d="M0,0"/>
</g>
<g>
	<path class="st2" d="M212.6,71.7l21,28.7l38.2-28l-21-28.7L212.6,71.7z M269.6,72l-1.9,1.4l0.5-1.5c0.1-0.4-0.1-0.9-0.5-1
		c-0.4-0.1-0.9,0.1-1,0.5l-1.1,3.5l-2.3,1.7l0.5-1.5c0.1-0.4-0.1-0.9-0.5-1c-0.4-0.1-0.9,0.1-1,0.5l-1.1,3.5l-2.3,1.7l0.5-1.5
		c0.1-0.4-0.1-0.9-0.5-1c-0.4-0.1-0.9,0.1-1,0.5l-1.1,3.5l-2.3,1.7l0.5-1.5c0.1-0.4-0.1-0.9-0.5-1c-0.4-0.1-0.9,0.1-1,0.5l-1.1,3.5
		l-2.3,1.7l0.5-1.5c0.1-0.4-0.1-0.9-0.5-1c-0.4-0.1-0.9,0.1-1,0.5l-1.1,3.5l-2.3,1.7l0.5-1.5c0.1-0.4-0.1-0.9-0.5-1
		c-0.4-0.1-0.9,0.1-1,0.5l-1.1,3.5L241,93l0.5-1.5c0.1-0.4-0.1-0.9-0.5-1c-0.4-0.1-0.9,0.1-1,0.5l-1.1,3.5l-2.3,1.7l0.5-1.5
		c0.1-0.4-0.1-0.9-0.5-1c-0.4-0.1-0.9,0.1-1,0.5l-1.1,3.5l-0.4,0.3l-19.1-26.1l1.9-1.4l-0.5,1.5c-0.1,0.4,0.1,0.9,0.5,1
		c0.2,0.1,0.5,0,0.7-0.1c0.1-0.1,0.2-0.2,0.3-0.4l1.1-3.5l2.3-1.7l-0.5,1.5c-0.1,0.4,0.1,0.9,0.5,1c0.2,0.1,0.5,0,0.7-0.1
		c0.1-0.1,0.2-0.2,0.3-0.4l1.1-3.5l2.3-1.7l-0.5,1.5c-0.1,0.4,0.1,0.9,0.5,1c0.2,0.1,0.5,0,0.7-0.1c0.1-0.1,0.2-0.2,0.3-0.4l1.1-3.5
		l2.3-1.7l-0.5,1.5c-0.1,0.4,0.1,0.9,0.5,1c0.2,0.1,0.5,0,0.7-0.1c0.1-0.1,0.2-0.2,0.3-0.4l1.1-3.5l2.3-1.7l-0.5,1.5
		c-0.1,0.4,0.1,0.9,0.5,1c0.2,0.1,0.5,0,0.7-0.1c0.1-0.1,0.2-0.2,0.3-0.4l1.1-3.5l2.3-1.7l-0.5,1.5c-0.1,0.4,0.1,0.9,0.5,1
		c0.2,0.1,0.5,0,0.7-0.1c0.1-0.1,0.2-0.2,0.3-0.4l1.1-3.5l2.3-1.7l-0.5,1.5c-0.1,0.4,0.1,0.9,0.5,1c0.2,0.1,0.5,0,0.7-0.1
		c0.1-0.1,0.2-0.2,0.3-0.4l1.1-3.5l2.3-1.7l-0.5,1.5c-0.1,0.4,0.1,0.9,0.5,1c0.2,0.1,0.5,0,0.7-0.1c0.1-0.1,0.2-0.2,0.3-0.4l1.1-3.5
		l0.4-0.3L269.6,72z"/>
	<path class="st2" d="M250.3,65.7l6.4-4.7l-4.7-6.4l-6.4,4.7L250.3,65.7z M247.8,59.6l3.8-2.8l2.8,3.8l-3.8,2.8L247.8,59.6z"/>
	<path class="st2" d="M238.4,69.5l-12.7,9.3c-0.4,0.3-0.4,0.8-0.2,1.1s0.8,0.4,1.1,0.2l12.7-9.3c0.4-0.3,0.4-0.8,0.2-1.1
		C239.2,69.3,238.7,69.2,238.4,69.5z"/>
	<path class="st2" d="M240.7,72.7L228,82c-0.4,0.3-0.4,0.8-0.2,1.1c0.3,0.4,0.8,0.4,1.1,0.2l12.7-9.3c0.4-0.3,0.4-0.8,0.2-1.1
		C241.6,72.5,241.1,72.4,240.7,72.7z"/>
	<path class="st2" d="M224.2,76.9l5.1-3.7c0.4-0.3,0.4-0.8,0.2-1.1c-0.3-0.4-0.8-0.4-1.1-0.2l-5.1,3.7c-0.4,0.3-0.4,0.8-0.2,1.1
		C223.4,77.1,223.9,77.1,224.2,76.9z"/>
</g>
<g>
	<path class="st2" d="M288.1,40.4l9.3,34.3l45.7-12.4L333.9,28L288.1,40.4z M341.2,61.2l-2.3,0.6l1-1.2c0.3-0.3,0.2-0.8-0.1-1.1
		c-0.3-0.3-0.8-0.2-1.1,0.1l-2.3,2.9l-2.8,0.8l1-1.2c0.3-0.3,0.2-0.8-0.1-1.1c-0.3-0.3-0.8-0.2-1.1,0.1l-2.3,2.9l-2.8,0.8l1-1.2
		c0.3-0.3,0.2-0.8-0.1-1.1c-0.3-0.3-0.8-0.2-1.1,0.1l-2.3,2.9l-2.8,0.8l1-1.2c0.3-0.3,0.2-0.8-0.1-1.1c-0.3-0.3-0.8-0.2-1.1,0.1
		l-2.3,2.9l-2.8,0.8l1-1.2c0.3-0.3,0.2-0.8-0.1-1.1c-0.3-0.3-0.8-0.2-1.1,0.1l-2.3,2.9l-2.8,0.8l1-1.2c0.3-0.3,0.2-0.8-0.1-1.1
		c-0.3-0.3-0.8-0.2-1.1,0.1l-2.3,2.9l-2.8,0.8l1-1.2c0.3-0.3,0.2-0.8-0.1-1.1c-0.3-0.3-0.8-0.2-1.1,0.1l-2.3,2.9l-2.8,0.8l1-1.2
		c0.3-0.3,0.2-0.8-0.1-1.1c-0.3-0.3-0.8-0.2-1.1,0.1l-2.3,2.9l-0.5,0.1l-8.5-31.3l2.3-0.6l-1,1.2c-0.3,0.3-0.2,0.8,0.1,1.1
		c0.2,0.2,0.5,0.2,0.7,0.1c0.2,0,0.3-0.1,0.4-0.3l2.3-2.9l2.8-0.8l-1,1.2c-0.3,0.3-0.2,0.8,0.1,1.1c0.2,0.2,0.5,0.2,0.7,0.1
		c0.2,0,0.3-0.1,0.4-0.3l2.3-2.9L303,38l-1,1.2c-0.3,0.3-0.2,0.8,0.1,1.1c0.2,0.2,0.5,0.2,0.7,0.1c0.2,0,0.3-0.1,0.4-0.3l2.3-2.9
		l2.8-0.8l-1,1.2c-0.3,0.3-0.2,0.8,0.1,1.1c0.2,0.2,0.5,0.2,0.7,0.1c0.2,0,0.3-0.1,0.4-0.3l2.3-2.9l2.8-0.8l-1,1.2
		c-0.3,0.3-0.2,0.8,0.1,1.1c0.2,0.2,0.5,0.2,0.7,0.1c0.2,0,0.3-0.1,0.4-0.3l2.3-2.9l2.8-0.8l-1,1.2c-0.3,0.3-0.2,0.8,0.1,1.1
		c0.2,0.2,0.5,0.2,0.7,0.1c0.2,0,0.3-0.1,0.4-0.3l2.3-2.9l2.8-0.8l-1,1.2c-0.3,0.3-0.2,0.8,0.1,1.1c0.2,0.2,0.5,0.2,0.7,0.1
		c0.2,0,0.3-0.1,0.4-0.3l2.3-2.9l2.8-0.8l-1,1.2c-0.3,0.3-0.2,0.8,0.1,1.1c0.2,0.2,0.5,0.2,0.7,0.1c0.2,0,0.3-0.1,0.4-0.3l2.3-2.9
		l0.5-0.1L341.2,61.2z"/>
	<path class="st2" d="M325.4,48.3l7.6-2.1l-2.1-7.6l-7.6,2.1L325.4,48.3z M325.3,41.8l4.6-1.2l1.2,4.6l-4.6,1.2L325.3,41.8z"/>
	<path class="st2" d="M313,47.6l-15.2,4.1c-0.4,0.1-0.7,0.5-0.6,1s0.5,0.7,1,0.6l15.2-4.1c0.4-0.1,0.7-0.5,0.6-1
		C313.8,47.7,313.4,47.4,313,47.6z"/>
	<path class="st2" d="M314,51.4l-15.2,4.1c-0.4,0.1-0.7,0.5-0.6,1s0.5,0.7,1,0.6l15.2-4.1c0.4-0.1,0.7-0.5,0.6-1
		S314.4,51.3,314,51.4z"/>
	<path class="st2" d="M297.1,49.4l6.1-1.7c0.4-0.1,0.7-0.5,0.6-1s-0.5-0.7-1-0.6l-6.1,1.7c-0.4,0.1-0.7,0.5-0.6,1
		S296.7,49.5,297.1,49.4z"/>
</g>
<g>
	<path class="st2" d="M274.3,101.3l3.3,28.2l37.7-4.4L312,96.9L274.3,101.3z M313.8,124l-1.9,0.2l0.9-0.9c0.3-0.2,0.3-0.6,0-0.9
		c-0.2-0.3-0.6-0.3-0.9,0l-2.1,2l-2.3,0.3l0.9-0.9c0.3-0.2,0.3-0.6,0-0.9c-0.2-0.3-0.6-0.3-0.9,0l-2.1,2l-2.3,0.3l0.9-0.9
		c0.3-0.2,0.3-0.6,0-0.9c-0.2-0.3-0.6-0.3-0.9,0l-2.1,2l-2.3,0.3l0.9-0.9c0.3-0.2,0.3-0.6,0-0.9c-0.2-0.3-0.6-0.3-0.9,0l-2.1,2
		l-2.3,0.3l0.9-0.9c0.3-0.2,0.3-0.6,0-0.9c-0.2-0.3-0.6-0.3-0.9,0l-2.1,2l-2.3,0.3l0.9-0.9c0.3-0.2,0.3-0.6,0-0.9
		c-0.2-0.3-0.6-0.3-0.9,0l-2.1,2l-2.3,0.3l0.9-0.9c0.3-0.2,0.3-0.6,0-0.9c-0.2-0.3-0.6-0.3-0.9,0l-2.1,2l-2.3,0.3l0.9-0.9
		c0.3-0.2,0.3-0.6,0-0.9c-0.2-0.3-0.6-0.3-0.9,0l-2.1,2l-0.4,0l-3-25.7l1.9-0.2l-0.9,0.9c-0.3,0.2-0.3,0.6,0,0.9
		c0.1,0.2,0.3,0.2,0.5,0.2c0.1,0,0.3-0.1,0.4-0.2l2.1-2l2.3-0.3l-0.9,0.9c-0.3,0.2-0.3,0.6,0,0.9c0.1,0.2,0.3,0.2,0.5,0.2
		c0.1,0,0.3-0.1,0.4-0.2l2.1-2l2.3-0.3l-0.9,0.9c-0.3,0.2-0.3,0.6,0,0.9c0.1,0.2,0.3,0.2,0.5,0.2c0.1,0,0.3-0.1,0.4-0.2l2.1-2
		l2.3-0.3l-0.9,0.9c-0.3,0.2-0.3,0.6,0,0.9c0.1,0.2,0.3,0.2,0.5,0.2c0.1,0,0.3-0.1,0.4-0.2l2.1-2l2.3-0.3l-0.9,0.9
		c-0.3,0.2-0.3,0.6,0,0.9c0.1,0.2,0.3,0.2,0.5,0.2c0.1,0,0.3-0.1,0.4-0.2l2.1-2l2.3-0.3l-0.9,0.9c-0.3,0.2-0.3,0.6,0,0.9
		c0.1,0.2,0.3,0.2,0.5,0.2c0.1,0,0.3-0.1,0.4-0.2l2.1-2l2.3-0.3L303,100c-0.3,0.2-0.3,0.6,0,0.9c0.1,0.2,0.3,0.2,0.5,0.2
		c0.1,0,0.3-0.1,0.4-0.2l2.1-2l2.3-0.3l-0.9,0.9c-0.3,0.2-0.3,0.6,0,0.9c0.1,0.2,0.3,0.2,0.5,0.2c0.1,0,0.3-0.1,0.4-0.2l2.1-2l0.4,0
		L313.8,124z"/>
	<path class="st2" d="M302.9,112l6.3-0.7l-0.7-6.3l-6.3,0.7L302.9,112z M303.6,106.8l3.8-0.4l0.4,3.8l-3.8,0.4L303.6,106.8z"/>
	<path class="st2" d="M293.1,109.9l-12.6,1.5c-0.3,0-0.6,0.4-0.6,0.7c0,0.3,0.4,0.6,0.7,0.6l12.6-1.5c0.3,0,0.6-0.4,0.6-0.7
		C293.8,110.1,293.5,109.9,293.1,109.9z"/>
	<path class="st2" d="M293.5,113.1l-12.6,1.5c-0.3,0-0.6,0.4-0.6,0.7c0,0.3,0.4,0.6,0.7,0.6l12.6-1.5c0.3,0,0.6-0.4,0.6-0.7
		C294.1,113.3,293.8,113,293.5,113.1z"/>
	<path class="st2" d="M280.3,109.5l5-0.6c0.3,0,0.6-0.4,0.6-0.7c0-0.3-0.4-0.6-0.7-0.6l-5,0.6c-0.3,0-0.6,0.4-0.6,0.7
		C279.7,109.3,280,109.5,280.3,109.5z"/>
</g>
</svg>
