<?xml version="1.0" encoding="utf-8"?>
<!-- Generator: Adobe Illustrator 21.0.0, SVG Export Plug-In . SVG Version: 6.00 Build 0)  -->
<svg version="1.1" id="Layer_1" xmlns="http://www.w3.org/2000/svg" xmlns:xlink="http://www.w3.org/1999/xlink" x="0px" y="0px"
	 viewBox="0 0 163.6 131.7" style="enable-background:new 0 0 163.6 131.7;" xml:space="preserve">
<style type="text/css">
	.st0{fill:#E91E63;}
</style>
<title>happy reclabox</title>
<g id="Layer_2">
	<g id="Layer_1-2">
		<path class="st0" d="M81.4,131.5c-10.3,0.2-20.6,0.7-30.9-1C24.9,126,5.2,106.6,1.3,80.7c-3-20.3-1.5-40,11.4-57.1
			C25.7,6.3,43.7-0.5,65,0.3c11.3,0.4,22.7,0.9,33.9-0.1C124.3-2.1,152,15.4,159.4,40c6.1,20.2,6,40.5-3.8,59.7
			c-10.4,20.4-28.1,29.9-50.3,31.7C97.4,132,89.4,131.5,81.4,131.5z M81.5,105.7c6.3,0,12.7-0.3,19,0.1c11.7,0.8,19.4-5.1,24.3-14.8
			c7.4-14.7,7.5-30.2,2.3-45.5c-5-14.9-14.1-20.7-29.7-20.7c-11.5,0-23,0.1-34.5,0c-10.8-0.1-18.7,4.8-23.6,13.9
			c-8.6,16.3-8.6,33.4-1.8,50.1c4.6,11.2,13,18.2,26.4,17C69.8,105.3,75.7,105.7,81.5,105.7z"/>
		<path class="st0" d="M65.5,80.5c10,3.1,19.9,1.7,29.9-0.5c1.9-0.4,3.8-1.1,5.8-1.6c1.7-0.6,3.5,0.2,4.2,1.8c1,1.9-0.3,3.1-1.7,4.2
			c-2.5,1.9-5.4,3.3-8.4,4.2c-8.9,2.7-18.2,3.9-27.5,3.4c-1.7-0.1-3.3-0.5-4.8-1.2c-2.5-1.1-3.9-3.2-3.1-6
			C60.6,82.2,62.9,80.4,65.5,80.5z"/>
		<path class="st0" d="M104.4,58.6c-4.5,0-9-4.5-9-9c0.3-4.9,4.3-8.7,9.1-8.8c4.7,0.3,8.3,4.2,8.3,8.9
			C112.9,54.4,108.8,58.6,104.4,58.6z"/>
		<path class="st0" d="M56.2,40.8c4.5-0.1,9.1,4.5,9,9c-0.1,4.3-4.3,8.6-8.7,8.8s-9-4.3-9-9C47.5,45.3,51.9,40.9,56.2,40.8z"/>
	</g>
</g>
</svg>
