<?xml version="1.0" encoding="utf-8"?>
<!-- Generator: Adobe Illustrator 18.0.0, SVG Export Plug-In . SVG Version: 6.00 Build 0)  -->
<!DOCTYPE svg PUBLIC "-//W3C//DTD SVG 1.1//EN" "http://www.w3.org/Graphics/SVG/1.1/DTD/svg11.dtd">
<svg version="1.1" id="Шар_1" xmlns="http://www.w3.org/2000/svg" xmlns:xlink="http://www.w3.org/1999/xlink" x="0px" y="0px"
	 viewBox="0 0 120 120" enable-background="new 0 0 120 120" xml:space="preserve">
<title>10 place</title>
<desc>Created with Sketch.</desc>
<g id="Page-1">
	<g id="RB-Signs" transform="translate(-200.000000, -75.000000)">
		<g id="_x31_0-place" transform="translate(200.000000, 75.000000)">
			<path id="Rectangle-28" fill="#607D8B" d="M5,0h110c2.8,0,5,2.2,5,5v110c0,2.8-2.2,5-5,5H5c-2.8,0-5-2.2-5-5V5C0,2.2,2.2,0,5,0z"
				/>
			<text transform="matrix(1 0 0 1 12 25)" fill="#FFFFFF" font-family="'GothamPro-Bold'" font-size="13">10. Platz</text>
			<text transform="matrix(1 0 0 1 51 101)" fill="#FFFFFF" font-family="'GothamPro-Bold'" font-size="7">RECLABOX.COM</text>
			<text transform="matrix(1 0 0 1 12 42)" fill="#FFFFFF" font-family="'GothamPro-Light'" font-size="5">IN DER KATEGORIE</text>
			<text transform="matrix(1 0 0 1 12 53)" fill="#FFFFFF" font-family="'GothamPro-Bold'" font-size="7">EMPFEHLUNGSPORTALE</text>
			
				<image overflow="visible" enable-background="new    " width="70" height="47" id="Germany" xlink:href="9E6A188B3D9F8314.png"  transform="matrix(0.4286 0 0 0.4255 11 88)">
			</image>
		</g>
	</g>
</g>
</svg>
