<?xml version="1.0" encoding="utf-8"?>
<!-- Generator: Adobe Illustrator 21.0.0, SVG Export Plug-In . SVG Version: 6.00 Build 0)  -->
<svg version="1.1" id="Layer_1" xmlns="http://www.w3.org/2000/svg" xmlns:xlink="http://www.w3.org/1999/xlink" x="0px" y="0px"
	 viewBox="0 0 2100 1293" style="enable-background:new 0 0 2100 1293;" xml:space="preserve">
<style type="text/css">
	.st0{fill:#FFD54F;}
	.st1{fill:#FFC107;}
	.st2{fill:#FFFFFF;}
	.st3{fill:#FFAB91;}
	.st4{fill:#815338;}
	.st5{fill:#FFCCBC;}
	.st6{fill:#004D40;}
	.st7{fill:#37474F;}
	.st8{fill:#BC5B3C;}
	.st9{fill:#A14B30;}
	.st10{fill:#00695C;}
	.st11{fill:#5D4037;}
	.st12{fill:#8BC34A;}
	.st13{fill:#388E3C;}
	.st14{fill:none;stroke:#A1887F;stroke-width:3;}
	.st15{fill:#A1887F;}
</style>
<g id="jake">
	<g id="jake-2">
		<g>
			<path class="st0" d="M821.3,1068.1c-4.5-6.2-9.3-12.2-14.3-18v17.9L821.3,1068.1z"/>
			<path class="st0" d="M807,1107v108h68.2c-4-54.6-23.4-105-53.8-146.8L844,1107H807z"/>
			<path class="st0" d="M723,1067.3V1017l40-8.2C715.2,972.5,655.6,951,591,951h-12c-46.4,0-90.3,11.1-129,30.8v83.4L723,1067.3z"/>
			<path class="st0" d="M324.8,1107l26.5-42.4C341.3,1077.8,332.4,1092,324.8,1107z"/>
			<rect x="450" y="1107" class="st0" width="273" height="108"/>
			<path class="st0" d="M366,1046.7c-5.1,5.7-10,11.7-14.6,17.8l14.6,0.1V1046.7z"/>
			<path class="st0" d="M807,1491h-84v-198H450v148.5h-84V1293h-72v186c0,157.4,127.6,285,285,285h12c157.4,0,285-127.6,285-285
				v-186h-69V1491z"/>
			<path class="st0" d="M366,1107h-41.2c-16.7,32.8-27.2,69.4-30,108H366V1107z"/>
			<path class="st1" d="M875.2,1215c0.5,6.9,0.8,13.9,0.8,21v-21H875.2z"/>
			<path class="st1" d="M294,1215v21c0-7.1,0.3-14.1,0.8-21H294z"/>
			<rect x="450" y="1215" class="st1" width="273" height="78"/>
			<path class="st1" d="M807,1215v78h69v-57c0-7.1-0.3-14.1-0.8-21H807z"/>
			<path class="st1" d="M366,1215h-71.2c-0.5,6.9-0.8,13.9-0.8,21v57h72V1215z"/>
			<path class="st1" d="M351.4,1064.5L351.4,1064.5C351.4,1064.5,351.4,1064.5,351.4,1064.5L351.4,1064.5z"/>
			<path class="st1" d="M324.8,1107L324.8,1107C324.8,1107,324.8,1107,324.8,1107L324.8,1107z"/>
			<path class="st1" d="M821.3,1068.1L821.3,1068.1c0,0.1,0.1,0.1,0.1,0.2L821.3,1068.1z"/>
			<polygon class="st1" points="723,1107 723,1067.3 450,1065.2 450,1107 			"/>
			<path class="st1" d="M807,1107h37l-22.6-38.8c0-0.1-0.1-0.1-0.1-0.2L807,1068V1107z"/>
			<path class="st1" d="M366,1064.6l-14.6-0.1c0,0,0,0-0.1,0.1l-26.5,42.4c0,0,0,0,0,0H366V1064.6z"/>
			<rect x="366" y="1293" class="st1" width="84" height="148.5"/>
			<rect x="366" y="1107" class="st1" width="84" height="108"/>
			<path class="st1" d="M450,1065.2v-83.4c-31.9,16.2-60.4,38.3-84,64.9v17.9L450,1065.2z"/>
			<rect x="366" y="1215" class="st1" width="84" height="78"/>
			<polygon class="st1" points="450,1065.2 366,1064.6 366,1107 450,1107 			"/>
			<path class="st1" d="M723,1067.3l84,0.6v-17.9c-13.2-15.3-27.9-29.1-44-41.3l-40,8.2V1067.3z"/>
			<rect x="723" y="1107" class="st1" width="84" height="108"/>
			<rect x="723" y="1293" class="st1" width="84" height="198"/>
			<rect x="723" y="1215" class="st1" width="84" height="78"/>
			<polygon class="st1" points="807,1107 807,1068 723,1067.3 723,1107 			"/>
		</g>
		<rect id="Rectangle_5_copy_4" x="543" y="1017" class="st1" width="84" height="474"/>
		<circle class="st2" cx="585" cy="1221" r="15"/>
		<path id="neck" class="st3" d="M585,672c58,0,105,47,105,105l0,0v210c0,58-47,105-105,105s-105-47-105-105V777
			C480,719,527,672,585,672L585,672z"/>
		<circle id="hair" class="st4" cx="825" cy="645" r="75"/>
		<circle id="hair_copy_2" class="st4" cx="342" cy="648" r="75"/>
		<path id="Rounded_Rectangle_10_copy" class="st4" d="M240,714h201l0,0v62.8c0,28.3-22.9,51.2-51.2,51.2H354
			C291,828,240,777,240,714L240,714L240,714z"/>
		<path id="Rounded_Rectangle_10_copy_2" class="st4" d="M723,714h201l0,0v0.1C924,777,873,828,810.1,828l0,0
			c-48.1,0-87.1-39-87.1-87.1v0V714L723,714z"/>
		<circle id="ear_copy" class="st3" cx="823.5" cy="679.5" r="52.5"/>
		<circle id="ear" class="st3" cx="343.5" cy="679.5" r="52.5"/>
		<path id="head" class="st5" d="M585,351L585,351c132.5,0,240,107.5,240,240v120c0,132.5-107.5,240-240,240l0,0
			c-132.5,0-240-107.5-240-240V591C345,458.5,452.5,351,585,351z"/>
		<circle id="eye" class="st3" cx="450" cy="627" r="30"/>
		<circle id="eye-2" class="st3" cx="714" cy="627" r="30"/>
		<path id="angry_copy" class="st3" d="M558,792h60c6.6,0,12,5.4,12,12l0,0c0,6.6-5.4,12-12,12h-60c-6.6,0-12-5.4-12-12l0,0
			C546,797.4,551.4,792,558,792z"/>
		<path id="Rounded_Rectangle_9" class="st6" d="M585,261L585,261c130.9,0,237,106.1,237,237v51l0,0H348l0,0v-51
			C348,367.1,454.1,261,585,261z"/>
		<path id="Rounded_Rectangle_9_copy" class="st4" d="M345,714h480l0,0v195c0,130.9-106.1,237-237,237h-6
			c-130.9,0-237-106.1-237-237V714L345,714z"/>
		<g id="MOUTH_copy">
			<circle class="st7" cx="585" cy="762" r="105"/>
			<path class="st8" d="M504.6,836.6c17.3,18.2,55.9,30.4,80.4,30.4l0,0c25.6,0,65-13.2,82.6-32.9c-20.1-23.1-50.3-38-78.5-38
				C560,796.1,526.4,812.1,504.6,836.6z"/>
			<path id="Rounded_Rectangle_10" class="st4" d="M510,657h150c38.1,0,69,30.9,69,69v30l0,0H441l0,0v-30
				C441,687.9,471.9,657,510,657z"/>
			<g>
				<path class="st9" d="M504.6,836.6c21.8-24.5,55.3-40.5,84.5-40.5c28.2,0,58.4,14.9,78.5,38c15-16.8,25.9-39.2,30.4-64.5H472
					C476.7,796.2,488.4,819.6,504.6,836.6z"/>
				<path class="st2" d="M700.3,744.3L700.3,744.3l-230.7,0v0c0,8.7,0.8,17.1,2.3,25.3h226"/>
			</g>
		</g>
		<path id="Rounded_Rectangle_8" class="st10" d="M336,477h498c6.6,0,12,5.4,12,12v54c0,6.6-5.4,12-12,12H336c-6.6,0-12-5.4-12-12
			v-54C324,482.4,329.4,477,336,477z"/>
		<path id="Rounded_Rectangle_2" class="st3" d="M564,609h42c5,0,9,4,9,9v72c0,5-4,9-9,9h-42c-5,0-9-4-9-9v-72
			C555,613,559,609,564,609z"/>
		<g id="finger_up">
			<path id="Rounded_Rectangle_6_copy_3" class="st3" d="M946.5,1107L946.5,1107c12.4,0,22.5,10.1,22.5,22.5v63
				c0,12.4-10.1,22.5-22.5,22.5l0,0c-12.4,0-22.5-10.1-22.5-22.5v-63C924,1117.1,934.1,1107,946.5,1107z"/>
			<path id="Rounded_Rectangle_6_copy_5" class="st3" d="M964.5,1029L964.5,1029c12.4,0,22.5,10.1,22.5,22.5v72
				c0,12.4-10.1,22.5-22.5,22.5l0,0c-12.4,0-22.5-10.1-22.5-22.5v-72C942,1039.1,952.1,1029,964.5,1029z"/>
			<path id="Rounded_Rectangle_6_copy_4" class="st3" d="M964.5,1092h66c12.4,0,22.5,10.1,22.5,22.5v210c0,12.4-10.1,22.5-22.5,22.5
				h-66c-12.4,0-22.5-10.1-22.5-22.5v-210C942,1102.1,952.1,1092,964.5,1092z"/>
			<path id="Rounded_Rectangle_6" class="st5" d="M979.5,1092h72c12.4,0,22.5,10.1,22.5,22.5l0,0c0,12.4-10.1,22.5-22.5,22.5h-72
				c-12.4,0-22.5-10.1-22.5-22.5l0,0C957,1102.1,967.1,1092,979.5,1092z"/>
			<path id="Rounded_Rectangle_6_copy" class="st5" d="M979.5,1137h72c12.4,0,22.5,10.1,22.5,22.5l0,0c0,12.4-10.1,22.5-22.5,22.5
				h-72c-12.4,0-22.5-10.1-22.5-22.5l0,0C957,1147.1,967.1,1137,979.5,1137z"/>
			<path id="Rounded_Rectangle_6_copy_2" class="st5" d="M979.5,1182h72c12.4,0,22.5,10.1,22.5,22.5l0,0c0,12.4-10.1,22.5-22.5,22.5
				h-72c-12.4,0-22.5-10.1-22.5-22.5l0,0C957,1192.1,967.1,1182,979.5,1182z"/>
		</g>
	</g>
	<g id="page">
		<g id="hairdoo_2">
			<path id="hair-2" class="st11" d="M1227,666h81c36.5,0,66,29.5,66,66l0,0c0,36.5-29.5,66-66,66h-81c-36.5,0-66-29.5-66-66l0,0
				C1161,695.5,1190.5,666,1227,666z"/>
			<path id="hair-3" class="st11" d="M1704,666h81c36.5,0,66,29.5,66,66l0,0c0,36.5-29.5,66-66,66h-81c-36.5,0-66-29.5-66-66l0,0
				C1638,695.5,1667.5,666,1704,666z"/>
			<path id="hair_copy" class="st11" d="M1212,669V567c0-160.7,130.3-291,291-291s291,130.3,291,291v102"/>
		</g>
		<path id="clothes-2" class="st12" d="M1467,966h75c157.4,0,285,127.6,285,285v330c0,157.4-127.6,285-285,285h-75
			c-157.4,0-285-127.6-285-285v-330C1182,1093.6,1309.6,966,1467,966z"/>
		<path id="Rounded_Rectangle_7" class="st13" d="M1450.8,1098.5l46.7-46.7c4.7-4.7,12.2-4.7,16.9-0.1c0,0,0,0,0.1,0.1l46.7,46.7
			c4.7,4.7,4.7,12.3,0,17c0,0,0,0,0,0l-46.7,46.7c-4.7,4.7-12.2,4.7-16.9,0.1c0,0,0,0-0.1-0.1l-46.7-46.7
			C1446.2,1110.8,1446.2,1103.2,1450.8,1098.5C1450.8,1098.5,1450.8,1098.5,1450.8,1098.5z"/>
		<path id="Rounded_Rectangle_7_copy" class="st13" d="M1449.4,1282.8l46.6-113.4c4.7-11.4,12.3-11.4,16.9,0l46.6,113.4
			c4.7,13.4,4.7,27.9,0,41.2l-46.6,113.4c-4.7,11.4-12.3,11.4-16.9,0l-46.6-113.4C1444.8,1310.7,1444.8,1296.1,1449.4,1282.8z"/>
		<path id="neck_copy_2" class="st13" d="M1434.5,936h140c48.4,0,87.5,39.3,87.5,87.6V1134l-162-51l-153,54v-113.4
			C1347,975.3,1386.1,936,1434.5,936z"/>
		<path id="neck-2" class="st3" d="M1503,663c58,0,105,47,105,105v210c0,58-47,105-105,105s-105-47-105-105V768
			C1398,710,1445,663,1503,663z"/>
		<circle id="ear-2" class="st3" cx="1263" cy="687" r="45"/>
		<circle id="ear-3" class="st3" cx="1743" cy="687" r="45"/>
		<path id="head-2" class="st5" d="M1503,366L1503,366c132.5,0,240,107.5,240,240v120c0,132.5-107.5,240-240,240l0,0
			c-132.5,0-240-107.5-240-240V606C1263,473.5,1370.5,366,1503,366z"/>
		<path class="st11" d="M1416,363h102l0,0v255l0,0h-276l0,0v-81C1242,440.9,1319.9,363,1416,363z"/>
		<path id="Rectangle_3_copy" class="st11" d="M1356,342h243c96.1,0,174,77.9,174,174l0,0v102l0,0h-417l0,0V342L1356,342z"/>
		<g id="glasses">
			<circle id="glasses-2" class="st14" cx="1630.5" cy="640.5" r="67.5"/>
			<circle id="glasses_copy" class="st14" cx="1374" cy="642" r="69"/>
			<rect x="1437" y="615" class="st15" width="135" height="9"/>
			<rect id="Rectangle_2_copy" x="1692" y="624" class="st15" width="60" height="9"/>
			<rect id="Rectangle_2_copy_2" x="1254" y="624" class="st15" width="60" height="9"/>
		</g>
		<circle id="eye-3" class="st3" cx="1374" cy="642" r="24"/>
		<circle id="eye-4" class="st3" cx="1632" cy="642" r="24"/>
		<path id="nose" class="st3" d="M1476,624h57c5,0,9,4,9,9v72c0,5-4,9-9,9h-57c-5,0-9-4-9-9v-72C1467,628,1471,624,1476,624z"/>
		<path class="st8" d="M1422.6,849.2c17.3,18.2,55.9,29.2,80.3,29.2l0,0c25.6,0,65-12,82.6-31.6c-20.1-23.1-50.3-38-78.5-38
			C1478,808.8,1444.4,824.7,1422.6,849.2z"/>
		<g>
			<path class="st9" d="M1422.6,849.2c21.8-24.5,55.3-40.5,84.5-40.5c28.2,0,58.4,14.9,78.5,38c15-16.8,25.9-39.2,30.4-64.5h-226
				C1394.7,808.8,1406.4,832.2,1422.6,849.2z"/>
			<path class="st2" d="M1618.3,757L1618.3,757l-230.7,0v0c0,8.7,0.8,17.1,2.3,25.3h226"/>
		</g>
	</g>
</g>
</svg>
