<?xml version="1.0" encoding="utf-8"?>
<!-- Generator: Adobe Illustrator 18.0.0, SVG Export Plug-In . SVG Version: 6.00 Build 0)  -->
<!DOCTYPE svg PUBLIC "-//W3C//DTD SVG 1.1//EN" "http://www.w3.org/Graphics/SVG/1.1/DTD/svg11.dtd">
<svg version="1.1" id="Шар_1" xmlns="http://www.w3.org/2000/svg" xmlns:xlink="http://www.w3.org/1999/xlink" x="0px" y="0px"
	 viewBox="0 0 100 100" enable-background="new 0 0 100 100" xml:space="preserve">
<title>befrieding</title>
<desc>Created with Sketch.</desc>
<g id="Page-1">
	<g id="RB-Signs" transform="translate(-480.000000, -227.000000)">
		<g id="befrieding" transform="translate(480.000000, 227.000000)">
			<path id="Rectangle-28" fill="#EEEEEE" d="M5,0h90c2.8,0,5,2.2,5,5v90c0,2.8-2.2,5-5,5H5c-2.8,0-5-2.2-5-5V5C0,2.2,2.2,0,5,0z"/>
			<text transform="matrix(1 0 0 1 8 19)" fill="#555555" font-family="'GothamPro-Bold'" font-size="13">Befriedigend</text>
			<text transform="matrix(1 0 0 1 20.334 93)" fill="#AAAAAA" font-family="'GothamPro-Bold'" font-size="7">RECLABOX.COM</text>
			<text transform="matrix(1 0 0 1 10 36)" fill="#555555" font-family="'GothamPro-Light'" font-size="7">61 Beschwerden</text>
			<text transform="matrix(1 0 0 1 10 49)" fill="#555555" font-family="'GothamPro-Light'" font-size="7">53% Lösungsquote</text>
			<rect id="Rectangle-29-Copy-6" y="60" fill="#26A69A" width="53" height="19"/>
			<rect id="Rectangle-29-Copy-7" x="53" y="60" fill="#B71C1C" width="47" height="19"/>
			<text transform="matrix(1 0 0 1 20.129 72)" fill="#FFFFFF" font-family="'GothamPro-Bold'" font-size="7">53%</text>
			<text transform="matrix(1 0 0 1 70.04 72)" fill="#FFFFFF" font-family="'GothamPro-Bold'" font-size="7">57%</text>
		</g>
	</g>
</g>
</svg>
