<?xml version="1.0" encoding="UTF-8"?>
<svg width="400px" height="400px" viewBox="0 0 400 400" version="1.1" xmlns="http://www.w3.org/2000/svg" xmlns:xlink="http://www.w3.org/1999/xlink">
    <!-- Generator: Sketch 41 (35326) - http://www.bohemiancoding.com/sketch -->
    <title>character rb 1</title>
    <desc>Created with Sketch.</desc>
    <defs></defs>
    <g id="Page-1" stroke="none" stroke-width="1" fill="none" fill-rule="evenodd">
        <g id="character-rb-1">
            <g id="Group" transform="translate(105.000000, 18.000000)">
                <rect id="Rectangle-9-Copy-7" fill="#FFD54F" x="0" y="261" width="190" height="240" rx="95"></rect>
                <rect id="Rectangle-9-Copy" fill="#E7E7E7" x="115" y="43" width="60" height="130" rx="30"></rect>
                <rect id="Rectangle-9-Copy-2" fill="#E7E7E7" x="15" y="0" width="110" height="200" rx="55"></rect>
                <path d="M40.4977255,298 C40.7726117,273.147186 61.1431362,253 85.987398,253 L105.503116,253 C130.351483,253 150.272285,273.141722 149.997338,298 L149.499612,343 L95,319.439791 L40,343 L40.4977255,298 Z" id="Rectangle-9-Copy-6" fill="#FFA102"></path>
                <rect id="Rectangle-9-Copy-3" fill="#000000" opacity="0.300000012" x="65" y="31" width="60" height="130" rx="30"></rect>
                <rect id="Rectangle-9-Copy-5" fill="#FFB9A0" x="60" y="180" width="70" height="130" rx="35"></rect>
                <circle id="Oval-2-Copy-3" fill="#FFB9A0" style="mix-blend-mode: overlay;" cx="15" cy="168" r="15"></circle>
                <circle id="Oval-2-Copy-2" fill="#FFB9A0" style="mix-blend-mode: overlay;" cx="175" cy="168" r="15"></circle>
                <rect id="Rectangle-9" fill="#FFD1C1" x="15" y="61" width="160" height="200" rx="80"></rect>
                <rect id="Rectangle-9-Copy-4" fill="#E7E7E7" x="15" y="33" width="50" height="120" rx="25"></rect>
                <path d="M55,169.814592 C60.5228475,169.814592 65,163 65,163 L45,163 C45,163 49.4771525,169.814592 55,169.814592 Z" id="Oval-2" fill="#000000" opacity="0.5" style="mix-blend-mode: overlay;"></path>
                <path d="M135,169.814592 C140.522847,169.814592 145,163 145,163 L125,163 C125,163 129.477153,169.814592 135,169.814592 Z" id="Oval-2-Copy" fill="#000000" opacity="0.5" style="mix-blend-mode: overlay;"></path>
                <rect id="Rectangle-11" fill="#A0A0A0" x="60" y="180" width="70" height="14" rx="7"></rect>
                <rect id="Rectangle-11-Copy" fill="#FFB9A0" x="100" y="204.185408" width="30" height="6.81459205" rx="3.40729602"></rect>
                <rect id="Rectangle-10" fill="#FFB9A0" x="85" y="157" width="20" height="33" rx="3"></rect>
            </g>
        </g>
    </g>
</svg>