<?xml version="1.0" encoding="UTF-8"?>
<svg enable-background="new 0 0 20 22" viewBox="0 0 20 22" version="1.1" xmlns="http://www.w3.org/2000/svg" xmlns:xlink="http://www.w3.org/1999/xlink">
    <g id="Page-1" stroke="none" stroke-width="1" fill="none" fill-rule="evenodd">
        <g id="landing" transform="translate(-1365.000000, -3710.000000)" fill-rule="nonzero" fill="#607D8B">
            <g id="calendar-clock" transform="translate(1365.000000, 3710.000000)">
                <path d="M12,12 L13.5,12 L13.5,14.82 L15.94,16.23 L15.19,17.53 L12,15.69 L12,12 L12,12 Z M16,7 L2,7 L2,18 L6.67,18 C6.24,17.09 6,16.07 6,15 C6,11.13 9.13,8 13,8 C14.07,8 15.09,8.24 16,8.67 L16,7 L16,7 Z M2,20 C0.89,20 0,19.1 0,18 L0,4 C0,2.89 0.89,2 2,2 L3,2 L3,0 L5,0 L5,2 L13,2 L13,0 L15,0 L15,2 L16,2 C17.1,2 18,2.9 18,4 L18,10.1 C19.24,11.36 20,13.09 20,15 C20,18.87 16.87,22 13,22 C11.09,22 9.36,21.24 8.1,20 L2,20 L2,20 Z M13,10.15 C10.32,10.15 8.15,12.32 8.15,15 C8.15,17.68 10.32,19.85 13,19.85 C15.68,19.85 17.85,17.68 17.85,15 C17.85,12.32 15.68,10.15 13,10.15 Z" id="Shape"></path>
            </g>
        </g>
    </g>
</svg>