<?xml version="1.0" encoding="UTF-8"?>
<svg width="27px" height="27px" viewBox="0 0 27 27" version="1.1" xmlns="http://www.w3.org/2000/svg" xmlns:xlink="http://www.w3.org/1999/xlink">
    <!-- Generator: Sketch 42 (36781) - http://www.bohemiancoding.com/sketch -->
    <title>Group</title>
    <desc>Created with Sketch.</desc>
    <defs></defs>
    <g id="Page-1" stroke="none" stroke-width="1" fill="none" fill-rule="evenodd">
        <g id="firmen" transform="translate(-1124.000000, -373.000000)">
            <g id="reclarank-mini" transform="translate(1125.000000, 374.000000)">
                <g id="Group">
                    <path d="M9,16.8 L11.156,16.8 L11.156,13.664 L12.822,13.664 L14.95,16.8 L17.47,16.8 L15.076,13.3 C16.322,12.838 17.176,11.844 17.176,10.262 C17.176,9.31 16.882,8.54 16.336,7.994 C15.692,7.35 14.726,7 13.48,7 L9,7 L9,16.8 Z M11.156,11.76 L11.156,8.946 L13.298,8.946 C14.348,8.946 14.992,9.422 14.992,10.346 C14.992,11.2 14.39,11.76 13.34,11.76 L11.156,11.76 Z" id="R" fill="#E91E63"></path>
                    <circle id="Oval-3-Copy-81" stroke="#E91E63" stroke-width="2" stroke-linecap="round" stroke-linejoin="round" stroke-dasharray="7,6" cx="12.5" cy="12.5" r="12.5"></circle>
                </g>
            </g>
        </g>
    </g>
</svg>